HIERARCHY
ROOT root
{
	OFFSET	0	13.1	24.9
	CHANNELS 6  Xposition Yposition Zposition Xrotation Yrotation Zrotation
	JOINT spine_1
	{
		OFFSET	0	9.99999	0
		CHANNELS 3  Xrotation Yrotation Zrotation
		JOINT spine_2
		{
			OFFSET	0	112	-10
			CHANNELS 3  Xrotation Yrotation Zrotation
			JOINT spine_3
			{
				OFFSET	0	206.5	19.3
				CHANNELS 3  Xrotation Yrotation Zrotation
				JOINT spine_4
				{
					OFFSET	0	110.4	14.6
					CHANNELS 3  Xrotation Yrotation Zrotation
					JOINT neck_1
					{
						OFFSET	0	71.8	-50.3
						CHANNELS 3  Xrotation Yrotation Zrotation
						JOINT neck_2
						{
							OFFSET	0	86.2	-25.8
							CHANNELS 3  Xrotation Yrotation Zrotation
							JOINT head_ee
							{
								OFFSET	0	179.8	-8.7
								CHANNELS 3  Xrotation Yrotation Zrotation
								End Site
								{
									OFFSET	1	0	0
								}
							}
						}
					}
					JOINT left_clavicle
					{
						OFFSET	-43.2	22.4	-70.8
						CHANNELS 3  Xrotation Yrotation Zrotation
						JOINT left_shoulder
						{
							OFFSET	-93.9	-5.79999	48.7
							CHANNELS 3  Xrotation Yrotation Zrotation
							JOINT left_elbow
							{
								OFFSET	-291.4	-30.8	15.2
								CHANNELS 3  Xrotation Yrotation Zrotation
								JOINT left_lowarm_twist
								{
									OFFSET	-110.7	-3.89999	13.6
									CHANNELS 3  Xrotation Yrotation Zrotation
									JOINT left_hand
									{
										OFFSET	-110.7	-3.89999	13.6
										CHANNELS 3  Xrotation Yrotation Zrotation
										JOINT left_ee
										{
											OFFSET	-80.8	-5.10001	12.1
											CHANNELS 3  Xrotation Yrotation Zrotation
											End Site
											{
												OFFSET	1	0	0
											}
										}
									}
								}
							}
						}
					}
					JOINT right_clavicle
					{
						OFFSET	43.2	22.4	-70.8
						CHANNELS 3  Xrotation Yrotation Zrotation
						JOINT right_shoulder
						{
							OFFSET	93.9	-5.79999	48.7
							CHANNELS 3  Xrotation Yrotation Zrotation
							JOINT right_elbow
							{
								OFFSET	291.4	-30.8	15.2
								CHANNELS 3  Xrotation Yrotation Zrotation
								JOINT right_lowarm_twist
								{
									OFFSET	110.7	-3.89999	13.6
									CHANNELS 3  Xrotation Yrotation Zrotation
									JOINT right_hand
									{
										OFFSET	110.7	-3.89999	13.6
										CHANNELS 3  Xrotation Yrotation Zrotation
										JOINT right_ee
										{
											OFFSET	80.8	-5.10001	12.1
											CHANNELS 3  Xrotation Yrotation Zrotation
											End Site
											{
												OFFSET	1	0	0
											}
										}
									}
								}
							}
						}
					}
				}
			}
		}
	}
	JOINT left_hip
	{
		OFFSET	-82.8	-127.5	0.300001
		CHANNELS 3  Xrotation Yrotation Zrotation
		JOINT left_knee
		{
			OFFSET	-28.2	-396.7	2.2
			CHANNELS 3  Xrotation Yrotation Zrotation
			JOINT left_ankle
			{
				OFFSET	-11.7	-411.3	35.4
				CHANNELS 3  Xrotation Yrotation Zrotation
				JOINT left_toes
				{
					OFFSET	0	-60	-88.6
					CHANNELS 3  Xrotation Yrotation Zrotation
					JOINT left_foot_ee
					{
						OFFSET	-22.5	-16.5	-42.2
						CHANNELS 3  Xrotation Yrotation Zrotation
						End Site
						{
							OFFSET	1	0	0
						}
					}
				}
			}
		}
	}
	JOINT right_hip
	{
		OFFSET	82.8	-127.5	0.300001
		CHANNELS 3  Xrotation Yrotation Zrotation
		JOINT right_knee
		{
			OFFSET	28.2	-396.7	2.2
			CHANNELS 3  Xrotation Yrotation Zrotation
			JOINT right_ankle
			{
				OFFSET	11.7	-411.3	35.4
				CHANNELS 3  Xrotation Yrotation Zrotation
				JOINT right_toes
				{
					OFFSET	0	-60	-88.6
					CHANNELS 3  Xrotation Yrotation Zrotation
					JOINT right_foot_ee
					{
						OFFSET	22.5	-16.5	-42.2
						CHANNELS 3  Xrotation Yrotation Zrotation
						End Site
						{
							OFFSET	1	0	0
						}
					}
				}
			}
		}
	}
}
MOTION
Frames: 15
Frame Time: 0.02
2076.88 721.097 -510.274 148.657 -83.7357 153.595 -0.354961 -0.690537 -3.2193 -0.349326 -0.484397 -3.25666 -0.317894 0.229102 -3.28448 -0.332827 -0.292209 -3.27947 -8.18381 -0.0688451 4.94968 -8.11282 -3.61778 4.88616 -0.0 0.0 -0.0 6.18077 18.4693 11.593 1.82915 -24.2431 69.5701 2.06497 -45.6438 0.86904 -51.5999 -4.26042 4.76395 1.6277 23.0615 18.9575 -0.0 0.0 -0.0 -2.18074 5.70407 5.10058 -10.7741 18.8641 -74.6507 0.19572 5.53788 -0.00946594 21.5829 -0.249013 2.72951 0.73935 -3.66388 -6.43065 0.0 0.0 0.0 -1.43054 18.4382 -6.87876 -6.59682 0.21486 0.989061 40.0168 13.6259 -4.91488 -23.7476 0.0 0.0 -0.0 0.0 -0.0 5.45967 13.4574 -10.7501 -22.5782 -0.256114 -3.43296 32.8064 2.55453 4.22539 -14.8148 0.0 0.0 0.0 0.0 0.0 
2083.0 719.56 -511.354 147.686 -83.2314 152.694 -0.5068 -0.673482 -3.22896 -0.501121 -0.466763 -3.26522 -0.470379 0.256959 -3.28836 -0.485369 -0.265313 -3.2877 -8.06067 -0.339661 4.86892 -7.99159 -4.07517 4.75272 -0.0 0.0 -0.0 5.90648 17.7981 11.1962 1.56104 -26.1139 69.3648 2.40289 -49.9585 1.11955 -50.3496 -4.11281 4.70106 1.64705 22.4977 18.9163 -0.0 0.0 -0.0 -2.03617 5.77102 4.81585 -10.964 18.8688 -74.0603 0.211403 5.97853 -0.0110395 21.582 -0.249024 2.72939 0.452088 -6.16435 -5.53489 0.0 0.0 0.0 -1.84044 18.593 -6.79374 -6.54378 0.213589 0.981021 40.1172 13.6228 -4.92378 -24.1964 0.0 0.0 -0.0 0.0 -0.0 4.89741 15.355 -10.9926 -22.6775 -0.254236 -3.44808 32.8397 2.50371 4.22822 -14.6883 0.0 0.0 0.0 0.0 0.0 
2091.03 717.418 -506.165 151.198 -82.5714 156.165 -0.571748 -0.510928 -3.32276 -0.565656 -0.298578 -3.3485 -0.54403 0.443856 -3.33238 -0.559514 -0.0876929 -3.36063 -7.92602 -0.139598 5.63087 -7.83333 -4.25267 5.55968 -0.0 0.0 -0.0 5.49156 15.7766 10.6053 -0.0769513 -27.9942 68.141 2.65523 -52.7463 1.31669 -47.6115 -3.79454 4.55218 1.42725 20.6347 16.9962 -0.0 0.0 -0.0 -1.90943 5.39926 4.50321 -11.3604 18.7923 -73.5832 0.201753 5.70747 -0.0100571 21.6642 -0.247995 2.73985 0.0601928 -9.3076 -4.24944 0.0 0.0 0.0 -0.926863 18.9673 -7.06556 -7.09967 0.226541 1.06534 41.2908 14.9867 -5.04653 -26.0436 0.0 0.0 -0.0 0.0 -0.0 4.50198 17.5444 -11.2757 -22.3365 -0.26057 -3.39614 35.0395 4.17865 4.46626 -14.9699 0.0 0.0 0.0 0.0 0.0 
2094.16 716.251 -504.701 149.742 -82.5796 154.583 -0.652674 -0.407529 -3.37538 -0.646357 -0.192045 -3.39444 -0.630745 0.563152 -3.35296 -0.646431 0.0268661 -3.39976 -7.707 0.26911 6.42341 -7.58624 -4.07575 6.44688 -0.0 0.0 -0.0 5.34776 13.8121 10.4116 -0.782944 -29.6143 67.8305 2.84506 -54.6323 1.46968 -45.6925 -3.57588 4.43888 1.25659 18.9237 15.3882 -0.0 0.0 -0.0 -1.74495 5.3346 4.15998 -11.7198 18.7253 -73.1038 0.194178 5.49451 -0.00931772 21.7595 -0.246784 2.75197 -0.259587 -11.9014 -3.26169 0.0 0.0 0.0 -0.582185 19.5823 -7.21088 -7.72057 0.24004 1.15967 41.9926 15.9095 -5.12254 -27.1916 0.0 0.0 -0.0 0.0 -0.0 4.04335 18.7249 -11.3665 -22.4186 -0.259074 -3.40865 36.3721 5.63447 4.61455 -15.1982 0.0 0.0 0.0 0.0 0.0 
2103.85 717.184 -501.309 146.392 -82.8404 150.991 -0.763754 -0.355235 -3.47928 -0.75703 -0.133257 -3.49481 -0.744343 0.649642 -3.43655 -0.760808 0.0990959 -3.49594 -7.65312 1.85092 8.71146 -7.4351 -2.77514 9.06145 -0.0 0.0 -0.0 4.75296 15.2227 9.41611 -1.16244 -30.7784 68.4455 2.95767 -55.6743 1.56211 -45.4436 -3.5478 4.42365 0.666208 16.5333 10.875 -0.0 0.0 -0.0 -1.55395 5.71199 3.82607 -11.3483 17.5528 -73.0024 0.218962 6.19068 -0.0118408 22.0995 -0.242301 2.79516 -0.548481 -14.8834 -2.68355 0.0 0.0 0.0 1.50312 18.6842 -8.47471 -14.2541 0.319825 2.15847 41.9031 17.0308 -5.13551 -26.8863 0.0 0.0 -0.0 0.0 -0.0 2.95381 20.2729 -11.1028 -22.134 -0.264185 -3.36528 38.1836 3.06359 4.74582 -16.016 0.0 0.0 0.0 0.0 0.0 
2108.32 714.449 -500.678 150.394 -82.103 155.477 -0.698443 -0.24913 -3.67213 -0.690943 -0.0151189 -3.68053 -0.685302 0.802842 -3.59205 -0.703233 0.225871 -3.67363 -9.39603 1.76883 8.75932 -9.17841 -2.69994 9.01164 -0.0 0.0 -0.0 4.34775 16.1029 8.76149 -1.16487 -31.7034 69.1814 2.9736 -55.8173 1.57527 -45.4541 -3.54898 4.42428 0.552258 15.0017 9.59955 -0.0 0.0 -0.0 -1.36922 6.66995 3.58295 -11.0673 17.0297 -72.3671 0.1937 5.48108 -0.009272 22.5746 -0.235605 2.85548 -0.793414 -17.228 -2.16508 0.0 0.0 0.0 0.939984 18.7086 -8.59634 -13.9896 0.31881 2.11789 42.0722 15.0351 -5.11463 -24.6387 0.0 0.0 -0.0 0.0 -0.0 2.09612 19.1275 -10.6626 -20.6949 -0.286731 -3.14561 39.4214 5.46524 4.88859 -16.1587 0.0 0.0 0.0 0.0 0.0 
2113.36 716.665 -500.936 145.287 -82.3665 150.201 -0.867312 -0.27284 -3.71022 -0.859656 -0.0363629 -3.72005 -0.852157 0.801486 -3.63298 -0.870505 0.218081 -3.71384 -8.82243 2.6742 9.08318 -8.58892 -1.31841 9.55821 -0.0 0.0 -0.0 3.98601 14.8685 8.16915 -1.04493 -32.197 70.5174 2.91185 -55.2568 1.52435 -45.3985 -3.54271 4.42087 0.250827 13.4806 7.12146 -0.0 0.0 -0.0 -1.23769 7.22044 3.38869 -9.56521 16.6968 -72.2623 0.204909 5.79616 -0.0103734 23.033 -0.228672 2.91362 -0.986676 -19.2647 -1.8712 0.0 0.0 0.0 1.87321 19.992 -9.10114 -16.8017 0.320005 2.54931 41.9209 16.6226 -5.12928 -24.6598 0.0 0.0 -0.0 0.0 -0.0 0.838677 22.153 -10.4104 -19.3588 -0.302717 -2.94123 38.4702 5.15876 4.79982 -16.2243 0.0 0.0 0.0 0.0 0.0 
2117.73 715.625 -501.896 140.121 -83.221 144.845 -0.941182 -0.292613 -3.68048 -0.933649 -0.0579842 -3.69162 -0.924665 0.77854 -3.60917 -0.942784 0.199174 -3.68671 -9.12763 2.92206 9.23248 -8.88698 -0.907411 9.75161 -0.0 0.0 -0.0 3.47877 15.2778 7.35746 -0.493218 -31.4381 72.0597 2.90242 -55.1699 1.51661 -45.7252 -3.57957 4.44087 -0.0436437 12.5508 4.89303 -0.0 0.0 -0.0 -1.12141 8.22828 3.28431 -7.43866 16.6997 -71.759 0.236083 6.67051 -0.0137583 23.2358 -0.225456 2.93932 -1.1625 -21.3106 -1.71991 0.0 0.0 0.0 3.12347 18.9588 -8.62393 -18.0254 0.313914 2.73695 42.2741 16.0281 -5.14875 -23.6903 0.0 0.0 -0.0 0.0 -0.0 0.551506 22.5601 -10.8072 -18.9124 -0.306995 -2.87287 39.4379 3.75517 4.86549 -16.3061 0.0 0.0 0.0 0.0 0.0 
2133.6 715.067 -501.381 132.652 -82.3896 137.288 -1.05275 -0.297776 -3.59351 -1.04557 -0.0686599 -3.60516 -1.03602 0.755379 -3.52591 -1.05331 0.189426 -3.60084 -10.0464 3.40752 9.46463 -9.79455 0.00379513 10.0712 -0.0 0.0 -0.0 3.14093 16.3615 6.85067 -1.54379 -31.7308 72.5766 2.84051 -54.5891 1.46597 -45.9148 -3.60102 4.45237 -0.209521 11.9234 3.58818 -0.0 0.0 -0.0 -1.03226 8.79229 3.17436 -5.69579 17.5803 -72.0963 0.24693 6.97405 -0.0150468 23.139 -0.227002 2.92706 -1.26621 -22.3709 -1.58239 0.0 0.0 0.0 3.18754 18.1027 -8.96114 -20.4993 0.289369 3.11571 42.1156 17.2481 -5.15816 -23.737 0.0 0.0 -0.0 0.0 -0.0 -2.64199 24.3579 -10.4114 -18.058 -0.313698 -2.74195 39.9663 3.0098 4.90194 -14.5986 0.0 0.0 0.0 0.0 0.0 
2150.94 714.385 -498.28 134.366 -80.694 138.84 -1.13948 -0.346408 -3.49455 -1.13269 -0.123479 -3.50949 -1.1199 0.685089 -3.44426 -1.13643 0.132884 -3.50914 -10.4164 3.39487 8.90075 -10.1939 0.426119 9.5128 -0.0 0.0 -0.0 2.73568 19.1266 6.32291 -3.49377 -29.637 72.6436 2.70493 -53.2566 1.35639 -45.9352 -3.60332 4.45361 -0.35554 9.80244 1.77983 -0.0 0.0 -0.0 -0.702556 9.34014 2.5621 -3.52836 19.4911 -72.4327 0.243544 6.87934 -0.0146384 23.1201 -0.227302 2.92466 -1.33098 -23.0857 -1.52572 0.0 0.0 0.0 3.11483 12.0921 -8.56025 -28.848 0.0864646 4.37973 42.0486 17.2602 -5.15261 -20.2021 0.0 0.0 -0.0 0.0 -0.0 -5.33668 25.7812 -9.93458 -18.6798 -0.309013 -2.83724 40.1562 0.10099 4.89009 -12.8247 0.0 0.0 0.0 0.0 0.0 
2160.65 711.683 -495.711 135.295 -79.9738 139.52 -1.14407 -0.272932 -3.3916 -1.13767 -0.0566902 -3.40208 -1.12952 0.726066 -3.32427 -1.14488 0.192266 -3.39712 -11.2377 3.73155 8.67659 -11.0274 1.34937 9.37649 -0.0 0.0 -0.0 2.32875 20.2196 5.76467 -4.83121 -29.3372 72.7795 2.6193 -52.3697 1.28817 -46.819 -3.70378 4.50628 -0.531707 9.69708 0.605619 -0.0 0.0 -0.0 -0.419616 10.3379 2.0982 -1.23162 20.9794 -72.2734 0.248024 7.00463 -0.0151798 23.0817 -0.227908 2.91979 -1.42583 -24.5941 -1.65907 0.0 0.0 0.0 3.99937 10.3354 -9.02489 -33.6916 -0.114944 5.09551 41.8694 15.9044 -5.11185 -17.4709 0.0 0.0 -0.0 0.0 -0.0 -7.52422 24.6796 -9.35059 -17.3062 -0.317979 -2.62669 40.5591 -1.18094 4.91608 -11.4259 0.0 0.0 0.0 0.0 0.0 
2172.48 713.027 -495.568 134.077 -79.2361 138.169 -1.16794 -0.22021 -3.30052 -1.16188 -0.00985962 -3.30784 -1.15684 0.75157 -3.22143 -1.17124 0.233663 -3.2996 -11.276 3.91918 8.62703 -11.0689 1.74364 9.37779 -0.0 0.0 -0.0 1.96643 21.5315 5.30612 -6.42607 -28.5814 72.7252 2.53366 -51.4456 1.22076 -46.6473 -3.6842 4.49617 -0.553308 9.11593 0.21976 -0.0 0.0 -0.0 -0.0835767 11.0982 1.48876 0.0232488 21.9987 -72.3483 0.259729 7.33169 -0.0166404 23.117 -0.227351 2.92427 -1.42219 -24.736 -1.74336 0.0 0.0 0.0 4.25541 7.80492 -8.72767 -37.3323 -0.305829 5.62118 41.559 14.8399 -5.06748 -16.4085 0.0 0.0 -0.0 0.0 -0.0 -8.67233 26.9672 -9.43597 -18.1715 -0.312919 -2.75935 40.2813 -2.60839 4.88603 -10.9441 0.0 0.0 0.0 0.0 0.0 
2180.35 714.214 -497.573 135.62 -77.9179 139.488 -1.34965 -0.234085 -3.1781 -1.34403 -0.031485 -3.18654 -1.33783 0.712352 -3.10614 -1.35123 0.213116 -3.17957 -11.9916 3.94856 8.62187 -11.785 1.92236 9.38519 -0.0 0.0 -0.0 1.46704 21.9739 4.62316 -7.96632 -28.2575 73.1209 2.38637 -49.7639 1.10693 -46.7915 -3.70065 4.50466 -0.591407 8.67437 -0.214149 -0.0 0.0 -0.0 0.305556 12.001 0.779143 2.35696 22.9802 -71.9848 0.343626 9.66061 -0.0290382 23.2527 -0.225183 2.94147 -1.40399 -24.8421 -1.89353 0.0 0.0 0.0 6.02769 6.16558 -8.70015 -38.5269 -0.375717 5.79095 40.9378 13.6862 -4.99685 -15.1994 0.0 0.0 -0.0 0.0 -0.0 -10.9826 26.6799 -8.08101 -16.8862 -0.319713 -2.56227 40.2772 -4.19718 4.8821 -10.3869 0.0 0.0 0.0 0.0 0.0 
2190.19 712.638 -497.438 137.73 -76.3728 141.954 -1.53123 -0.17233 -3.04639 -1.52607 0.0217763 -3.05117 -1.52303 0.742174 -2.9597 -1.53515 0.265658 -3.03968 -13.2954 3.51327 9.14657 -13.0605 0.981652 9.77335 -0.0 0.0 -0.0 0.980278 22.9243 4.01257 -8.93317 -27.6966 73.686 2.21153 -47.6037 0.975584 -46.8038 -3.70205 4.50539 -0.618989 8.39955 -0.509914 -0.0 0.0 -0.0 0.597846 12.8731 0.263138 4.29171 24.2206 -72.0891 0.38346 10.7557 -0.0360982 23.5657 -0.220029 2.98112 -1.32588 -24.9344 -2.37501 0.0 0.0 0.0 11.387 5.27721 -9.90477 -38.2238 -0.357652 5.74802 38.2574 14.2379 -4.76264 -15.0513 0.0 0.0 -0.0 0.0 -0.0 -13.7962 26.8935 -8.33831 -14.0924 -0.319226 -2.13366 40.9085 -5.64452 4.93599 -9.50377 0.0 0.0 0.0 0.0 0.0 
2196.66 710.377 -496.299 141.164 -75.0981 145.451 -1.64924 -0.166197 -2.96379 -1.64435 0.0226494 -2.96836 -1.64141 0.729371 -2.87752 -1.65287 0.265976 -2.95652 -13.2677 3.764 8.58117 -13.0626 1.80919 9.30779 -0.0 0.0 -0.0 0.943825 22.2919 3.90993 -10.1518 -27.2099 73.9937 1.7794 -41.3912 0.672271 -46.3756 -3.65329 4.48005 -0.644583 8.16979 -0.774032 -0.0 0.0 -0.0 1.10586 14.0045 -0.685213 6.33075 24.3632 -72.0099 0.506902 14.096 -0.0626712 23.3265 -0.223988 2.95082 -1.32696 -24.3343 -2.10335 0.0 0.0 0.0 12.0227 3.23874 -10.1377 -38.2155 -0.357159 5.74684 38.3783 13.1084 -4.75992 -14.3126 0.0 0.0 -0.0 0.0 -0.0 -14.9751 27.1154 -7.95664 -13.8846 -0.318356 -2.10179 41.427 -5.94172 4.98006 -8.92783 0.0 0.0 0.0 0.0 0.0 
